<?xml version="1.0" encoding="UTF-8" standalone="no"?>
<svg
   width="24"
   height="28"
   viewBox="0 0 24 28"
   fill="none"
   version="1.1"
   id="svg15"
   sodipodi:docname="menu_icon~bw.svg"
   inkscape:export-filename="menu_icon~bw.png"
   inkscape:export-xdpi="96"
   inkscape:export-ydpi="96"
   inkscape:version="1.4.3 (0d15f75, 2025-12-25)"
   xmlns:inkscape="http://www.inkscape.org/namespaces/inkscape"
   xmlns:sodipodi="http://sodipodi.sourceforge.net/DTD/sodipodi-0.dtd"
   xmlns:xlink="http://www.w3.org/1999/xlink"
   xmlns="http://www.w3.org/2000/svg"
   xmlns:svg="http://www.w3.org/2000/svg">
  <sodipodi:namedview
     id="namedview15"
     pagecolor="#ffffff"
     bordercolor="#000000"
     borderopacity="0.25"
     inkscape:showpageshadow="2"
     inkscape:pageopacity="0.0"
     inkscape:pagecheckerboard="0"
     inkscape:deskcolor="#d1d1d1"
     inkscape:zoom="10.419643"
     inkscape:cx="-3.6949443"
     inkscape:cy="15.499572"
     inkscape:window-width="2560"
     inkscape:window-height="1369"
     inkscape:window-x="1912"
     inkscape:window-y="-8"
     inkscape:window-maximized="1"
     inkscape:current-layer="g15" />
  <g
     clip-path="url(#clip0_1_43)"
     id="g15">
    <rect
       width="24"
       height="28"
       rx="2"
       fill="#AAAAAA"
       id="rect1"
       style="fill:url(#pattern16)" />
    <rect
       x="2"
       y="2"
       width="20"
       height="24"
       rx="1"
       fill="black"
       id="rect2" />
    <rect
       x="11"
       width="2"
       height="3"
       fill="white"
       id="rect3" />
    <rect
       x="11"
       y="25"
       width="2"
       height="3"
       fill="white"
       id="rect4" />
    <rect
       y="13"
       width="3"
       height="2"
       fill="white"
       id="rect5" />
    <rect
       x="21"
       y="13"
       width="3"
       height="2"
       fill="white"
       id="rect6" />
    <rect
       x="12"
       y="4"
       width="3"
       height="1"
       fill="white"
       id="rect7" />
    <rect
       x="14"
       y="4"
       width="1"
       height="3"
       fill="white"
       id="rect8" />
    <rect
       x="12"
       y="6"
       width="3"
       height="1"
       fill="white"
       id="rect9" />
    <rect
       x="12"
       y="6"
       width="1"
       height="3"
       fill="white"
       id="rect10" />
    <rect
       x="12"
       y="8"
       width="3"
       height="1"
       fill="white"
       id="rect11" />
    <rect
       x="10"
       y="4"
       width="1"
       height="5"
       fill="white"
       id="rect12" />
    <path
       d="M12 14L21 7"
       stroke="white"
       stroke-width="2"
       stroke-linecap="round"
       id="path12" />
    <path
       d="M12 14L5 12"
       stroke="white"
       stroke-width="2"
       stroke-linecap="round"
       id="path13" />
    <rect
       x="11"
       y="13"
       width="2"
       height="2"
       fill="white"
       id="rect13" />
    <path
       d="M16 22C16 19.7909 14.2091 18 12 18C9.79086 18 8 19.7909 8 22H16Z"
       fill="#AAAAAA"
       id="path14"
       style="fill:url(#pattern19)" />
    <path
       d="M10.5 20C11.3284 20 12 20.6716 12 21.5C12 21.6755 11.9685 21.8435 11.9131 22H9.08691C9.03153 21.8435 9 21.6755 9 21.5C9 20.6716 9.67157 20 10.5 20Z"
       fill="white"
       id="path15" />
  </g>
  <defs
     id="defs15">
    <pattern
       inkscape:collect="always"
       xlink:href="#pattern18"
       preserveAspectRatio="xMidYMid"
       id="pattern19"
       patternTransform="scale(1)"
       x="0"
       y="0" />
    <pattern
       inkscape:collect="always"
       style="fill:#ffffff"
       patternUnits="userSpaceOnUse"
       width="2"
       height="2"
       patternTransform="translate(0,0) scale(10,10)"
       id="pattern18"
       inkscape:stockid="Checkerboard"
       preserveAspectRatio="xMidYMid"
       inkscape:isstock="true"
       inkscape:label="Checkerboard">
      <rect
   style="stroke:none"
   x="0"
   y="0"
   width="1"
   height="1"
   id="rect17" />

      <rect
   style="stroke:none"
   x="1"
   y="1"
   width="1"
   height="1"
   id="rect18" />

    </pattern>
    <pattern
       inkscape:collect="always"
       xlink:href="#Checkerboard"
       preserveAspectRatio="xMidYMid"
       id="pattern16"
       patternTransform="scale(1)"
       x="0"
       y="0" />
    <pattern
       inkscape:collect="always"
       style="fill:#000000"
       patternUnits="userSpaceOnUse"
       width="2"
       height="2"
       patternTransform="translate(0,0) scale(10,10)"
       id="Checkerboard"
       inkscape:stockid="Checkerboard"
       preserveAspectRatio="xMidYMid"
       inkscape:isstock="true"
       inkscape:label="Checkerboard">
      <rect
   style="stroke:none"
   x="0"
   y="0"
   width="1"
   height="1"
   id="rect209" />

      <rect
   style="stroke:none"
   x="1"
   y="1"
   width="1"
   height="1"
   id="rect211" />

    </pattern>
    <clipPath
       id="clip0_1_43">
      <rect
         width="24"
         height="28"
         rx="2"
         fill="white"
         id="rect15" />
    </clipPath>
  </defs>
</svg>
