<?xml version="1.0" encoding="UTF-8" standalone="no"?>
<svg
   width="25"
   height="25"
   viewBox="0 0 25 25"
   fill="none"
   version="1.1"
   id="svg15"
   sodipodi:docname="menu_icon~color~round.svg"
   inkscape:export-filename="menu_icon~color~round.png"
   inkscape:export-xdpi="96"
   inkscape:export-ydpi="96"
   inkscape:version="1.4.3 (0d15f75, 2025-12-25)"
   xmlns:inkscape="http://www.inkscape.org/namespaces/inkscape"
   xmlns:sodipodi="http://sodipodi.sourceforge.net/DTD/sodipodi-0.dtd"
   xmlns="http://www.w3.org/2000/svg"
   xmlns:svg="http://www.w3.org/2000/svg">
  <sodipodi:namedview
     id="namedview15"
     pagecolor="#ffffff"
     bordercolor="#000000"
     borderopacity="0.25"
     inkscape:showpageshadow="2"
     inkscape:pageopacity="0.0"
     inkscape:pagecheckerboard="0"
     inkscape:deskcolor="#d1d1d1"
     inkscape:zoom="46.68"
     inkscape:cx="12.5"
     inkscape:cy="12.5"
     inkscape:window-width="2560"
     inkscape:window-height="1369"
     inkscape:window-x="1912"
     inkscape:window-y="-8"
     inkscape:window-maximized="1"
     inkscape:current-layer="svg15" />
  <g
     clip-path="url(#clip0_1_64)"
     id="g15">
    <rect
       width="25"
       height="25"
       rx="12.5"
       fill="#55AAAA"
       id="rect1" />
    <rect
       x="2"
       y="2"
       width="21"
       height="21"
       rx="10.5"
       fill="#005555"
       id="rect2" />
    <rect
       x="12"
       width="1"
       height="3"
       fill="black"
       id="rect3" />
    <rect
       x="12"
       y="22"
       width="1"
       height="3"
       fill="black"
       id="rect4" />
    <rect
       y="12"
       width="3"
       height="1"
       fill="black"
       id="rect5" />
    <rect
       x="22"
       y="12"
       width="3"
       height="1"
       fill="black"
       id="rect6" />
    <rect
       x="12"
       y="4"
       width="3"
       height="1"
       fill="white"
       id="rect7" />
    <rect
       x="14"
       y="4"
       width="1"
       height="3"
       fill="white"
       id="rect8" />
    <rect
       x="12"
       y="6"
       width="3"
       height="1"
       fill="white"
       id="rect9" />
    <rect
       x="12"
       y="6"
       width="1"
       height="3"
       fill="white"
       id="rect10" />
    <rect
       x="12"
       y="8"
       width="3"
       height="1"
       fill="white"
       id="rect11" />
    <rect
       x="10"
       y="4"
       width="1"
       height="5"
       fill="white"
       id="rect12" />
    <path
       d="M12.5 12.5L20 7"
       stroke="white"
       stroke-width="2"
       stroke-linecap="round"
       id="path12" />
    <path
       d="M12.5 12.5L6 11"
       stroke="#FF0000"
       stroke-width="2"
       stroke-linecap="round"
       id="path13" />
    <rect
       x="12"
       y="12"
       width="1"
       height="1"
       fill="black"
       id="rect13" />
    <path
       d="M16 21C16 18.7909 14.433 17 12.5 17C10.567 17 9 18.7909 9 21H16Z"
       fill="black"
       id="path14" />
    <path
       d="M11.5 19C12.3284 19 13 19.6716 13 20.5C13 20.6755 12.9685 20.8435 12.9131 21H10.0869C10.0315 20.8435 10 20.6755 10 20.5C10 19.6716 10.6716 19 11.5 19Z"
       fill="#FFAA00"
       id="path15" />
  </g>
  <defs
     id="defs15">
    <clipPath
       id="clip0_1_64">
      <rect
         width="25"
         height="25"
         rx="12.5"
         fill="white"
         id="rect15" />
    </clipPath>
  </defs>
</svg>
